<?xml version="1.0" encoding="UTF-8"?>
<svg width="1856" height="443" viewBox="0 0 1856 443" fill="none" xmlns="http://www.w3.org/2000/svg">
<path d="M777.462 194.572L784.185 186.137C786.815 182.838 790.829 180.912 795.078 180.912C795.587 180.912 796 180.504 796 180C796 179.496 795.587 179.088 795.078 179.088C790.829 179.088 786.815 177.162 784.185 173.863L777.462 165.428C774.067 161.169 768.809 158.783 763.33 159.016C754.2 159.403 747 166.835 747 175.87V184.13C747 193.165 754.2 200.597 763.33 200.984C768.809 201.217 774.067 198.831 777.462 194.572Z" fill="white"/>
<path d="M1575.46 251.428L1582.18 259.863C1584.81 263.162 1588.83 265.088 1593.08 265.088C1593.59 265.088 1594 265.496 1594 266C1594 266.504 1593.59 266.912 1593.08 266.912C1588.83 266.912 1584.81 268.838 1582.18 272.137L1575.46 280.572C1572.07 284.831 1566.81 287.217 1561.33 286.984C1552.2 286.597 1545 279.165 1545 270.13V261.87C1545 252.835 1552.2 245.403 1561.33 245.016C1566.81 244.783 1572.07 247.169 1575.46 251.428Z" fill="white"/>
<path d="M1606.54 251.428L1599.82 259.863C1597.19 263.162 1593.17 265.088 1588.92 265.088C1588.41 265.088 1588 265.496 1588 266C1588 266.504 1588.41 266.912 1588.92 266.912C1593.17 266.912 1597.19 268.838 1599.82 272.137L1606.54 280.572C1609.93 284.831 1615.19 287.217 1620.67 286.984C1629.8 286.597 1637 279.165 1637 270.13V261.87C1637 252.835 1629.8 245.403 1620.67 245.016C1615.19 244.783 1609.93 247.169 1606.54 251.428Z" fill="white"/>
<path d="M1626.46 358.928L1633.18 367.363C1635.81 370.662 1639.83 372.588 1644.08 372.588C1644.59 372.588 1645 372.996 1645 373.5C1645 374.004 1644.59 374.412 1644.08 374.412C1639.83 374.412 1635.81 376.338 1633.18 379.637L1626.46 388.072C1623.07 392.331 1617.81 394.717 1612.33 394.484C1603.2 394.097 1596 386.665 1596 377.63L1596 369.37C1596 360.335 1603.2 352.903 1612.33 352.516C1617.81 352.283 1623.07 354.669 1626.46 358.928Z" fill="white"/>
<path d="M1379.54 355.572L1372.82 347.137C1370.19 343.838 1366.17 341.912 1361.92 341.912C1361.41 341.912 1361 341.504 1361 341C1361 340.496 1361.41 340.088 1361.92 340.088C1366.17 340.088 1370.19 338.162 1372.82 334.863L1379.54 326.428C1382.93 322.169 1388.19 319.783 1393.67 320.016C1402.8 320.403 1410 327.835 1410 336.87V345.13C1410 354.165 1402.8 361.597 1393.67 361.984C1388.19 362.217 1382.93 359.831 1379.54 355.572Z" fill="white"/>
<path d="M966.538 134.215L959.815 125.78C957.185 122.48 953.171 120.555 948.922 120.555C948.413 120.555 948 120.146 948 119.643C948 119.139 948.413 118.731 948.922 118.731C953.171 118.731 957.185 116.805 959.815 113.505L966.538 105.071C969.933 100.811 975.191 98.4255 980.67 98.6581C989.8 99.0458 997 106.477 997 115.513V123.772C997 132.808 989.8 140.239 980.67 140.627C975.191 140.86 969.933 138.474 966.538 134.215Z" fill="white"/>
<path d="M793.462 165.428L800.185 173.863C802.815 177.162 806.829 179.088 811.078 179.088C811.587 179.088 812 179.496 812 180C812 180.504 811.587 180.912 811.078 180.912C806.829 180.912 802.815 182.838 800.185 186.137L793.462 194.572C790.067 198.831 784.809 201.217 779.33 200.984C770.2 200.597 763 193.165 763 184.13L763 175.87C763 166.835 770.2 159.403 779.33 159.016C784.809 158.783 790.067 161.169 793.462 165.428Z" fill="white"/>
<path d="M1405.54 355.572L1398.82 347.137C1396.19 343.838 1392.17 341.912 1387.92 341.912C1387.41 341.912 1387 341.504 1387 341C1387 340.496 1387.41 340.088 1387.92 340.088C1392.17 340.088 1396.19 338.162 1398.82 334.863L1405.54 326.428C1408.93 322.169 1414.19 319.783 1419.67 320.016C1428.8 320.403 1436 327.835 1436 336.87V345.13C1436 354.165 1428.8 361.597 1419.67 361.984C1414.19 362.217 1408.93 359.831 1405.54 355.572Z" fill="white"/>
<path d="M763 341.775C763 350.818 769.859 358.643 779 358.643H789C798.141 358.643 805 350.818 805 341.775V333.51C805 324.467 798.141 316.643 789 316.643H779C769.859 316.643 763 324.467 763 333.51V341.775Z" fill="white"/>
<path d="M1444.54 251.428L1437.82 259.863C1435.19 263.162 1431.17 265.088 1426.92 265.088C1426.41 265.088 1426 265.496 1426 266C1426 266.504 1426.41 266.912 1426.92 266.912C1431.17 266.912 1435.19 268.838 1437.82 272.137L1444.54 280.572C1447.93 284.831 1453.19 287.217 1458.67 286.984C1467.8 286.597 1475 279.165 1475 270.13V261.87C1475 252.835 1467.8 245.403 1458.67 245.016C1453.19 244.783 1447.93 247.169 1444.54 251.428Z" fill="white"/>
<path d="M1444.54 430.572L1437.82 422.137C1435.19 418.838 1431.17 416.912 1426.92 416.912C1426.41 416.912 1426 416.504 1426 416C1426 415.496 1426.41 415.088 1426.92 415.088C1431.17 415.088 1435.19 413.162 1437.82 409.863L1444.54 401.428C1447.93 397.169 1453.19 394.783 1458.67 395.016C1467.8 395.403 1475 402.835 1475 411.87V420.13C1475 429.165 1467.8 436.597 1458.67 436.984C1453.19 437.217 1447.93 434.831 1444.54 430.572Z" fill="white"/>
<path d="M834.538 194.572L827.815 186.137C825.185 182.838 821.171 180.912 816.922 180.912C816.413 180.912 816 180.504 816 180C816 179.496 816.413 179.088 816.922 179.088C821.171 179.088 825.185 177.162 827.815 173.863L834.538 165.428C837.933 161.169 843.191 158.783 848.67 159.016C857.8 159.403 865 166.835 865 175.87V184.13C865 193.165 857.8 200.597 848.67 200.984C843.191 201.217 837.933 198.831 834.538 194.572Z" fill="white"/>
<path d="M1542.96 367.43L1533.72 360.021C1530.11 357.123 1528 352.699 1528 348.016C1528 347.455 1527.55 347 1527 347C1526.45 347 1526 347.455 1526 348.016C1526 352.699 1523.89 357.123 1520.28 360.021L1511.04 367.43C1506.38 371.171 1503.76 376.966 1504.02 383.004C1504.44 393.066 1512.58 401 1522.48 401L1531.52 401C1541.42 401 1549.56 393.066 1549.98 383.004C1550.24 376.966 1547.62 371.171 1542.96 367.43Z" fill="white"/>
<path d="M1353.96 318.57L1344.72 325.979C1341.11 328.877 1339 333.301 1339 337.984C1339 338.545 1338.55 339 1338 339C1337.45 339 1337 338.545 1337 337.984C1337 333.301 1334.89 328.877 1331.28 325.979L1322.04 318.57C1317.38 314.829 1314.76 309.034 1315.02 302.996C1315.44 292.934 1323.58 285 1333.48 285L1342.52 285C1352.42 285 1360.56 292.934 1360.98 302.996C1361.24 309.034 1358.62 314.829 1353.96 318.57Z" fill="white"/>
<path d="M1353.96 363.43L1344.72 356.021C1341.11 353.123 1339 348.699 1339 344.016C1339 343.455 1338.55 343 1338 343C1337.45 343 1337 343.455 1337 344.016C1337 348.699 1334.89 353.123 1331.28 356.021L1322.04 363.43C1317.38 367.171 1314.76 372.966 1315.02 379.004C1315.44 389.066 1323.58 397 1333.48 397L1342.52 397C1352.42 397 1360.56 389.066 1360.98 379.004C1361.24 372.966 1358.62 367.171 1353.96 363.43Z" fill="white"/>
<path d="M1542.96 320.57L1533.72 327.979C1530.11 330.877 1528 335.301 1528 339.984C1528 340.545 1527.55 341 1527 341C1526.45 341 1526 340.545 1526 339.984C1526 335.301 1523.89 330.877 1520.28 327.979L1511.04 320.57C1506.38 316.829 1503.76 311.034 1504.02 304.996C1504.44 294.934 1512.58 287 1522.48 287L1531.52 287C1541.42 287 1549.56 294.934 1549.98 304.996C1550.24 311.034 1547.62 316.829 1542.96 320.57Z" fill="white"/>
<path d="M940.96 272.57L931.722 279.979C928.108 282.877 925.999 287.301 925.999 291.984C925.999 292.545 925.552 293 925 293C924.448 293 924.001 292.545 924.001 291.984C924.001 287.301 921.892 282.877 918.278 279.979L909.04 272.57C904.375 268.829 901.762 263.034 902.017 256.996C902.442 246.934 910.581 239 920.477 239L929.523 239C939.419 239 947.558 246.934 947.983 256.996C948.238 263.034 945.625 268.829 940.96 272.57Z" fill="white"/>
<path d="M1035.77 405.43L1045.01 398.021C1048.63 395.123 1050.74 390.699 1050.74 386.016C1050.74 385.455 1051.18 385 1051.73 385C1052.29 385 1052.73 385.455 1052.73 386.016C1052.73 390.699 1054.84 395.123 1058.46 398.021L1067.69 405.43C1072.36 409.171 1074.97 414.966 1074.72 421.004C1074.29 431.066 1066.15 439 1056.26 439L1047.21 439C1037.32 439 1029.18 431.066 1028.75 421.004C1028.5 414.966 1031.11 409.171 1035.77 405.43Z" fill="white"/>
<path d="M1511.04 403.43L1520.28 396.021C1523.89 393.123 1526 388.699 1526 384.016C1526 383.455 1526.45 383 1527 383C1527.55 383 1528 383.455 1528 384.016C1528 388.699 1530.11 393.123 1533.72 396.021L1542.96 403.43C1547.62 407.171 1550.24 412.966 1549.98 419.004C1549.56 429.066 1541.42 437 1531.52 437L1522.48 437C1512.58 437 1504.44 429.066 1504.02 419.004C1503.76 412.966 1506.38 407.171 1511.04 403.43Z" fill="white"/>
<path d="M1153.01 167.072L1162.25 159.664C1165.86 156.765 1167.97 152.341 1167.97 147.659C1167.97 147.098 1168.42 146.643 1168.97 146.643C1169.52 146.643 1169.97 147.098 1169.97 147.659C1169.97 152.341 1172.08 156.765 1175.69 159.664L1184.93 167.072C1189.6 170.814 1192.21 176.608 1191.96 182.647C1191.53 192.708 1183.39 200.643 1173.5 200.643L1164.45 200.643C1154.55 200.643 1146.41 192.708 1145.99 182.647C1145.73 176.608 1148.35 170.814 1153.01 167.072Z" fill="white"/>
<path d="M1042.04 167.072L1051.28 159.664C1054.89 156.765 1057 152.341 1057 147.659C1057 147.098 1057.45 146.643 1058 146.643C1058.55 146.643 1059 147.098 1059 147.659C1059 152.341 1061.11 156.765 1064.72 159.664L1073.96 167.072C1078.62 170.814 1081.24 176.608 1080.98 182.647C1080.56 192.708 1072.42 200.643 1062.52 200.643L1053.48 200.643C1043.58 200.643 1035.44 192.708 1035.02 182.647C1034.76 176.608 1037.38 170.814 1042.04 167.072Z" fill="white"/>
<path d="M898.04 167.072L907.278 159.664C910.892 156.765 913.001 152.341 913.001 147.659C913.001 147.098 913.448 146.643 914 146.643C914.552 146.643 914.999 147.098 914.999 147.659C914.999 152.341 917.108 156.765 920.722 159.664L929.96 167.072C934.625 170.814 937.238 176.608 936.983 182.647C936.558 192.708 928.419 200.643 918.523 200.643L909.477 200.643C899.581 200.643 891.442 192.708 891.017 182.647C890.762 176.608 893.375 170.814 898.04 167.072Z" fill="white"/>
<path d="M1758.01 409.43L1767.25 402.021C1770.86 399.123 1772.97 394.699 1772.97 390.016C1772.97 389.455 1773.42 389 1773.97 389C1774.52 389 1774.97 389.455 1774.97 390.016C1774.97 394.699 1777.08 399.123 1780.69 402.021L1789.93 409.43C1794.6 413.171 1797.21 418.966 1796.96 425.004C1796.53 435.066 1788.39 443 1778.5 443L1769.45 443C1759.55 443 1751.41 435.066 1750.99 425.004C1750.73 418.966 1753.35 413.171 1758.01 409.43Z" fill="white"/>
<path d="M1639.04 321.43L1648.28 314.021C1651.89 311.123 1654 306.699 1654 302.016C1654 301.455 1654.45 301 1655 301C1655.55 301 1656 301.455 1656 302.016C1656 306.699 1658.11 311.123 1661.72 314.021L1670.96 321.43C1675.62 325.171 1678.24 330.966 1677.98 337.004C1677.56 347.066 1669.42 355 1659.52 355L1650.48 355C1640.58 355 1632.44 347.066 1632.02 337.004C1631.76 330.966 1634.38 325.171 1639.04 321.43Z" fill="white"/>
<path d="M737.96 36.5701L728.722 43.9789C725.108 46.8772 722.999 51.3013 722.999 55.9836C722.999 56.5449 722.552 57 722 57C721.448 57 721.001 56.5449 721.001 55.9836C721.001 51.3013 718.892 46.8772 715.278 43.9789L706.04 36.5701C701.375 32.829 698.762 27.0341 699.017 20.9958C699.442 10.9345 707.581 3 717.477 3L726.523 3C736.419 3 744.558 10.9345 744.983 20.9958C745.238 27.0341 742.625 32.829 737.96 36.5701Z" fill="white"/>
<path d="M940.96 397.43L931.722 390.021C928.108 387.123 925.999 382.699 925.999 378.016C925.999 377.455 925.552 377 925 377C924.448 377 924.001 377.455 924.001 378.016C924.001 382.699 921.892 387.123 918.278 390.021L909.04 397.43C904.375 401.171 901.762 406.966 902.017 413.004C902.442 423.066 910.581 431 920.477 431L929.523 431C939.419 431 947.558 423.066 947.983 413.004C948.238 406.966 945.625 401.171 940.96 397.43Z" fill="white"/>
<path d="M1035.77 280.57L1045.01 287.979C1048.63 290.877 1050.74 295.301 1050.74 299.984C1050.74 300.545 1051.18 301 1051.73 301C1052.29 301 1052.73 300.545 1052.73 299.984C1052.73 295.301 1054.84 290.877 1058.46 287.979L1067.69 280.57C1072.36 276.829 1074.97 271.034 1074.72 264.996C1074.29 254.934 1066.15 247 1056.26 247L1047.21 247C1037.32 247 1029.18 254.934 1028.75 264.996C1028.5 271.034 1031.11 276.829 1035.77 280.57Z" fill="white"/>
<path d="M1361 306L1315 305.658V271C1315 256.641 1326.64 245 1341 245H1454V287L1380 287C1369.51 287 1361 295.507 1361 306V306Z" fill="white"/>
<path d="M1361 376L1315 376.342V411C1315 425.359 1326.64 437 1341 437H1457.5V395L1380 395C1369.51 395 1361 386.493 1361 376V376Z" fill="white"/>
<path d="M745 140H699V175C699 189.359 710.641 201 725 201L781 201V159H764C753.507 159 745 150.493 745 140V140Z" fill="white"/>
<path d="M1550 306L1504 305.658V271C1504 256.641 1515.64 245 1530 245H1562V287V287C1555.37 287 1550 292.373 1550 299V306Z" fill="white"/>
<path d="M1632 334H1678V271C1678 256.641 1666.36 245 1652 245H1620V287V287C1626.63 287 1632 292.373 1632 299V334Z" fill="white"/>
<path d="M1632 336H1678V368.5C1678 382.859 1666.36 394.5 1652 394.5L1612 394.5V352.5H1615.5C1624.61 352.5 1632 345.113 1632 336V336Z" fill="white"/>
<path d="M948 412H902V258.341L948 258C948 268.473 956.534 276.968 967 277L972 277C979.263 277 987.06 280.629 991.428 287.381C995.337 293.422 995.665 300.56 993.019 307.176L987.779 320.278C985.921 324.922 986.117 330.113 988.269 334.619C988.61 335.334 988.26 336.211 987.499 336.428C986.756 336.64 986.008 336.108 985.901 335.342C984.607 326.107 976.591 319 967 319C956.507 319 948 327.506 948 338V412Z" fill="white"/>
<path d="M1028.73 266H1074.73V419.659L1028.73 420C1028.73 409.527 1020.2 401.032 1009.73 401L1004.73 401C997.471 401 989.675 397.371 985.306 390.619C981.398 384.578 981.07 377.44 983.716 370.824L988.956 357.722C990.813 353.078 990.617 347.887 988.465 343.381C988.124 342.666 988.474 341.789 989.235 341.572C989.979 341.36 990.726 341.892 990.834 342.658C992.127 351.893 1000.14 359 1009.73 359C1020.23 359 1028.73 350.494 1028.73 340V266Z" fill="white"/>
<rect x="1550" y="383" width="33" height="46" transform="rotate(90 1550 383)" fill="white"/>
<rect x="699" y="140" width="118" height="46" transform="rotate(-90 699 140)" fill="white"/>
<rect x="1146" y="185.643" width="118" height="46" transform="rotate(-90 1146 185.643)" fill="white"/>
<rect x="1394" y="320" width="23" height="42" fill="white"/>
<rect x="1554" y="245" width="75" height="42" fill="white"/>
<path d="M1711 287C1710.78 287 1710.55 286.994 1710.33 286.984C1701.2 286.597 1694 279.165 1694 270.13V261.87C1694 252.835 1701.2 245.403 1710.33 245.016C1710.55 245.006 1710.78 245 1711 245H1840V245.033C1848.97 245.584 1856 252.944 1856 261.87V270.13C1856 279.056 1848.97 286.416 1840 286.967V287H1811C1803.27 287 1797 293.268 1797 301V423.5H1751V301C1751 293.268 1744.73 287 1737 287H1711Z" fill="white"/>
<path d="M709.359 373.115L709.172 303.115C709.108 279.322 728.378 260 752.171 260H812C835.748 260 855 279.252 855 303V373C855 396.748 835.748 416 812 416H752.359C728.655 416 709.422 396.818 709.359 373.115Z" stroke="white" stroke-width="42"/>
<path d="M914 182.643L914 87.6425C914 52.2963 942.654 23.6426 978 23.6426L994 23.6426C1029.35 23.6426 1058 52.2964 1058 87.6426V182.643" stroke="white" stroke-width="46"/>
<path d="M527 137V67C527 54.8497 536.85 45 549 45H609C621.15 45 631 54.8497 631 67C631 77.4934 639.507 86 650 86H654C664.493 86 673 77.4934 673 67C673 31.6538 644.346 3 609 3H549C513.654 3 485 31.6538 485 67V137C485 172.346 513.654 201 549 201H609C644.346 201 673 172.346 673 137C673 125.954 664.046 117 653 117H651C639.954 117 631 125.954 631 137C631 149.15 621.15 159 609 159H549C536.85 159 527 149.15 527 137Z" fill="white"/>
<path d="M527 373V303C527 290.85 536.85 281 549 281H609C621.15 281 631 290.85 631 303C631 313.493 639.507 322 650 322H654C664.493 322 673 313.493 673 303C673 267.654 644.346 239 609 239H549C513.654 239 485 267.654 485 303V373C485 408.346 513.654 437 549 437H609C644.346 437 673 408.346 673 373C673 361.954 664.046 353 653 353H651C639.954 353 631 361.954 631 373C631 385.15 621.15 395 609 395H549C536.85 395 527 385.15 527 373Z" fill="white"/>
<path d="M1139 373V303C1139 290.85 1148.85 281 1161 281H1221C1233.15 281 1243 290.85 1243 303C1243 313.493 1251.51 322 1262 322H1266C1276.49 322 1285 313.493 1285 303C1285 267.654 1256.35 239 1221 239H1161C1125.65 239 1097 267.654 1097 303V373C1097 408.346 1125.65 437 1161 437H1221C1256.35 437 1285 408.346 1285 373C1285 361.954 1276.05 353 1265 353H1263C1251.95 353 1243 361.954 1243 373C1243 385.15 1233.15 395 1221 395H1161C1148.85 395 1139 385.15 1139 373Z" fill="white"/>
<path fill-rule="evenodd" clip-rule="evenodd" d="M1121.97 8.94096C1121.97 8.94694 1121.96 8.94718 1121.95 8.94159C1115.22 2.99679 1105.05 3.2359 1098.74 9.54437L1092.9 15.3847C1086.59 21.6929 1086.35 31.8584 1092.3 38.5923C1092.3 38.5991 1092.3 38.6094 1092.3 38.6158V38.6158C1092.29 38.6225 1092.29 38.6333 1092.3 38.6399L1138.76 85.1011C1143.38 89.7196 1145.97 95.9837 1145.97 102.515V104.143C1145.97 116.845 1156.27 127.143 1168.97 127.143V127.143C1181.68 127.143 1191.97 116.845 1191.97 104.143V102.401C1191.97 95.8397 1194.58 89.5467 1199.22 84.9069L1244.61 39.5146C1244.83 39.2993 1245.05 39.0776 1245.26 38.8495L1245.49 38.6382C1245.49 38.632 1245.49 38.6215 1245.49 38.6151V38.6151C1245.48 38.6091 1245.48 38.5994 1245.49 38.5931C1251.43 31.8591 1251.19 21.6932 1244.88 15.3847L1239.05 9.54437C1232.74 3.23626 1222.57 2.99681 1215.84 8.94106C1215.83 8.94724 1215.82 8.94702 1215.81 8.94049V8.94049C1215.81 8.93366 1215.8 8.93372 1215.79 8.94062L1186.57 38.1594C1176.81 47.9226 1160.98 47.9225 1151.21 38.1591L1122.85 9.79388C1122.64 9.58197 1122.43 9.37494 1122.21 9.17279L1122 8.94148C1121.99 8.93476 1121.98 8.93452 1121.97 8.94096V8.94096Z" fill="white"/>
<path d="M347.789 89.2051C305.842 47.2558 263.674 2.28381 204.357 1.38715C187.374 1.13043 173.886 1 170 1C76.1113 1 0 77.1116 0 171V267C0 360.888 76.1113 437 170 437H266C359.889 437 436 360.888 436 267C436 263.114 435.87 249.631 435.613 232.652C434.716 173.33 389.74 131.158 347.789 89.2051V89.2051Z" fill="white"/>
</svg>
