<?xml version="1.0" encoding="UTF-8"?>
<svg width="1856" height="444" viewBox="0 0 1856 444" fill="none" xmlns="http://www.w3.org/2000/svg">
<path d="M777.462 194.678L784.185 186.244C786.815 182.944 790.829 181.018 795.078 181.018C795.587 181.018 796 180.61 796 180.106C796 179.603 795.587 179.194 795.078 179.194C790.829 179.194 786.815 177.269 784.185 173.969L777.462 165.534C774.067 161.275 768.809 158.889 763.33 159.122C754.2 159.51 747 166.941 747 175.977V184.236C747 193.272 754.2 200.703 763.33 201.091C768.809 201.324 774.067 198.938 777.462 194.678Z" fill="black"/>
<path d="M1575.46 251.534L1582.18 259.969C1584.81 263.269 1588.83 265.194 1593.08 265.194C1593.59 265.194 1594 265.603 1594 266.106C1594 266.61 1593.59 267.018 1593.08 267.018C1588.83 267.018 1584.81 268.944 1582.18 272.244L1575.46 280.678C1572.07 284.938 1566.81 287.324 1561.33 287.091C1552.2 286.703 1545 279.272 1545 270.236V261.977C1545 252.941 1552.2 245.51 1561.33 245.122C1566.81 244.889 1572.07 247.275 1575.46 251.534Z" fill="black"/>
<path d="M1606.54 251.534L1599.82 259.969C1597.19 263.269 1593.17 265.194 1588.92 265.194C1588.41 265.194 1588 265.603 1588 266.106C1588 266.61 1588.41 267.018 1588.92 267.018C1593.17 267.018 1597.19 268.944 1599.82 272.244L1606.54 280.678C1609.93 284.938 1615.19 287.324 1620.67 287.091C1629.8 286.703 1637 279.272 1637 270.236V261.977C1637 252.941 1629.8 245.51 1620.67 245.122C1615.19 244.889 1609.93 247.275 1606.54 251.534Z" fill="black"/>
<path d="M1626.46 359.034L1633.18 367.469C1635.81 370.769 1639.83 372.694 1644.08 372.694C1644.59 372.694 1645 373.103 1645 373.606C1645 374.11 1644.59 374.518 1644.08 374.518C1639.83 374.518 1635.81 376.444 1633.18 379.744L1626.46 388.178C1623.07 392.438 1617.81 394.824 1612.33 394.591C1603.2 394.203 1596 386.772 1596 377.736L1596 369.477C1596 360.441 1603.2 353.01 1612.33 352.622C1617.81 352.389 1623.07 354.775 1626.46 359.034Z" fill="black"/>
<path d="M1379.54 355.678L1372.82 347.244C1370.19 343.944 1366.17 342.018 1361.92 342.018C1361.41 342.018 1361 341.61 1361 341.106C1361 340.603 1361.41 340.194 1361.92 340.194C1366.17 340.194 1370.19 338.269 1372.82 334.969L1379.54 326.534C1382.93 322.275 1388.19 319.889 1393.67 320.122C1402.8 320.51 1410 327.941 1410 336.977V345.236C1410 354.272 1402.8 361.703 1393.67 362.091C1388.19 362.324 1382.93 359.938 1379.54 355.678Z" fill="black"/>
<path d="M966.538 134.321L959.815 125.886C957.185 122.587 953.171 120.661 948.922 120.661C948.413 120.661 948 120.253 948 119.749C948 119.245 948.413 118.837 948.922 118.837C953.171 118.837 957.185 116.911 959.815 113.612L966.538 105.177C969.933 100.918 975.191 98.5319 980.67 98.7646C989.8 99.1523 997 106.584 997 115.619V123.879C997 132.914 989.8 140.346 980.67 140.733C975.191 140.966 969.933 138.58 966.538 134.321Z" fill="black"/>
<path d="M793.462 165.534L800.185 173.969C802.815 177.269 806.829 179.194 811.078 179.194C811.587 179.194 812 179.603 812 180.106C812 180.61 811.587 181.018 811.078 181.018C806.829 181.018 802.815 182.944 800.185 186.244L793.462 194.678C790.067 198.938 784.809 201.324 779.33 201.091C770.2 200.703 763 193.272 763 184.236L763 175.977C763 166.941 770.2 159.51 779.33 159.122C784.809 158.889 790.067 161.275 793.462 165.534Z" fill="black"/>
<path d="M1405.54 355.678L1398.82 347.244C1396.19 343.944 1392.17 342.018 1387.92 342.018C1387.41 342.018 1387 341.61 1387 341.106C1387 340.603 1387.41 340.194 1387.92 340.194C1392.17 340.194 1396.19 338.269 1398.82 334.969L1405.54 326.534C1408.93 322.275 1414.19 319.889 1419.67 320.122C1428.8 320.51 1436 327.941 1436 336.977V345.236C1436 354.272 1428.8 361.703 1419.67 362.091C1414.19 362.324 1408.93 359.938 1405.54 355.678Z" fill="black"/>
<path d="M763 341.882C763 350.924 769.859 358.749 779 358.749H789C798.141 358.749 805 350.924 805 341.882V333.616C805 324.574 798.141 316.749 789 316.749H779C769.859 316.749 763 324.574 763 333.616V341.882Z" fill="black"/>
<path d="M1444.54 251.534L1437.82 259.969C1435.19 263.269 1431.17 265.194 1426.92 265.194C1426.41 265.194 1426 265.603 1426 266.106C1426 266.61 1426.41 267.018 1426.92 267.018C1431.17 267.018 1435.19 268.944 1437.82 272.244L1444.54 280.678C1447.93 284.938 1453.19 287.324 1458.67 287.091C1467.8 286.703 1475 279.272 1475 270.236V261.977C1475 252.941 1467.8 245.51 1458.67 245.122C1453.19 244.889 1447.93 247.275 1444.54 251.534Z" fill="black"/>
<path d="M1444.54 430.678L1437.82 422.244C1435.19 418.944 1431.17 417.018 1426.92 417.018C1426.41 417.018 1426 416.61 1426 416.106C1426 415.603 1426.41 415.194 1426.92 415.194C1431.17 415.194 1435.19 413.269 1437.82 409.969L1444.54 401.534C1447.93 397.275 1453.19 394.889 1458.67 395.122C1467.8 395.51 1475 402.941 1475 411.977V420.236C1475 429.272 1467.8 436.703 1458.67 437.091C1453.19 437.324 1447.93 434.938 1444.54 430.678Z" fill="black"/>
<path d="M834.538 194.678L827.815 186.244C825.185 182.944 821.171 181.018 816.922 181.018C816.413 181.018 816 180.61 816 180.106C816 179.603 816.413 179.194 816.922 179.194C821.171 179.194 825.185 177.269 827.815 173.969L834.538 165.534C837.933 161.275 843.191 158.889 848.67 159.122C857.8 159.51 865 166.941 865 175.977V184.236C865 193.272 857.8 200.703 848.67 201.091C843.191 201.324 837.933 198.938 834.538 194.678Z" fill="black"/>
<path d="M1542.96 367.536L1533.72 360.128C1530.11 357.229 1528 352.805 1528 348.123C1528 347.561 1527.55 347.106 1527 347.106C1526.45 347.106 1526 347.561 1526 348.123C1526 352.805 1523.89 357.229 1520.28 360.128L1511.04 367.536C1506.38 371.277 1503.76 377.072 1504.02 383.111C1504.44 393.172 1512.58 401.106 1522.48 401.106L1531.52 401.106C1541.42 401.106 1549.56 393.172 1549.98 383.111C1550.24 377.072 1547.62 371.277 1542.96 367.536Z" fill="black"/>
<path d="M1353.96 318.677L1344.72 326.085C1341.11 328.984 1339 333.408 1339 338.09C1339 338.651 1338.55 339.106 1338 339.106C1337.45 339.106 1337 338.651 1337 338.09C1337 333.408 1334.89 328.984 1331.28 326.085L1322.04 318.677C1317.38 314.935 1314.76 309.141 1315.02 303.102C1315.44 293.041 1323.58 285.106 1333.48 285.106L1342.52 285.106C1352.42 285.106 1360.56 293.041 1360.98 303.102C1361.24 309.141 1358.62 314.935 1353.96 318.677Z" fill="black"/>
<path d="M1353.96 363.536L1344.72 356.128C1341.11 353.229 1339 348.805 1339 344.123C1339 343.561 1338.55 343.106 1338 343.106C1337.45 343.106 1337 343.561 1337 344.123C1337 348.805 1334.89 353.229 1331.28 356.128L1322.04 363.536C1317.38 367.277 1314.76 373.072 1315.02 379.111C1315.44 389.172 1323.58 397.106 1333.48 397.106L1342.52 397.106C1352.42 397.106 1360.56 389.172 1360.98 379.111C1361.24 373.072 1358.62 367.277 1353.96 363.536Z" fill="black"/>
<path d="M1542.96 320.677L1533.72 328.085C1530.11 330.984 1528 335.408 1528 340.09C1528 340.651 1527.55 341.106 1527 341.106C1526.45 341.106 1526 340.651 1526 340.09C1526 335.408 1523.89 330.984 1520.28 328.085L1511.04 320.677C1506.38 316.935 1503.76 311.141 1504.02 305.102C1504.44 295.041 1512.58 287.106 1522.48 287.106L1531.52 287.106C1541.42 287.106 1549.56 295.041 1549.98 305.102C1550.24 311.141 1547.62 316.935 1542.96 320.677Z" fill="black"/>
<path d="M940.96 272.677L931.722 280.085C928.108 282.984 925.999 287.408 925.999 292.09C925.999 292.651 925.552 293.106 925 293.106C924.448 293.106 924.001 292.651 924.001 292.09C924.001 287.408 921.892 282.984 918.278 280.085L909.04 272.677C904.375 268.935 901.762 263.141 902.017 257.102C902.442 247.041 910.581 239.106 920.477 239.106L929.523 239.106C939.419 239.106 947.558 247.041 947.983 257.102C948.238 263.141 945.625 268.935 940.96 272.677Z" fill="black"/>
<path d="M1035.77 405.536L1045.01 398.128C1048.63 395.229 1050.74 390.805 1050.74 386.123C1050.74 385.561 1051.18 385.106 1051.73 385.106C1052.29 385.106 1052.73 385.561 1052.73 386.123C1052.73 390.805 1054.84 395.229 1058.46 398.128L1067.69 405.536C1072.36 409.277 1074.97 415.072 1074.72 421.111C1074.29 431.172 1066.15 439.106 1056.26 439.106L1047.21 439.106C1037.32 439.106 1029.18 431.172 1028.75 421.111C1028.5 415.072 1031.11 409.277 1035.77 405.536Z" fill="black"/>
<path d="M1511.04 403.536L1520.28 396.128C1523.89 393.229 1526 388.805 1526 384.123C1526 383.561 1526.45 383.106 1527 383.106C1527.55 383.106 1528 383.561 1528 384.123C1528 388.805 1530.11 393.229 1533.72 396.128L1542.96 403.536C1547.62 407.277 1550.24 413.072 1549.98 419.111C1549.56 429.172 1541.42 437.106 1531.52 437.106L1522.48 437.106C1512.58 437.106 1504.44 429.172 1504.02 419.111C1503.76 413.072 1506.38 407.277 1511.04 403.536Z" fill="black"/>
<path d="M1153.01 167.179L1162.25 159.77C1165.86 156.872 1167.97 152.448 1167.97 147.765C1167.97 147.204 1168.42 146.749 1168.97 146.749C1169.52 146.749 1169.97 147.204 1169.97 147.765C1169.97 152.448 1172.08 156.872 1175.69 159.77L1184.93 167.179C1189.6 170.92 1192.21 176.715 1191.96 182.753C1191.53 192.815 1183.39 200.749 1173.5 200.749L1164.45 200.749C1154.55 200.749 1146.41 192.815 1145.99 182.753C1145.73 176.715 1148.35 170.92 1153.01 167.179Z" fill="black"/>
<path d="M1042.04 167.179L1051.28 159.77C1054.89 156.872 1057 152.448 1057 147.765C1057 147.204 1057.45 146.749 1058 146.749C1058.55 146.749 1059 147.204 1059 147.765C1059 152.448 1061.11 156.872 1064.72 159.77L1073.96 167.179C1078.62 170.92 1081.24 176.715 1080.98 182.753C1080.56 192.815 1072.42 200.749 1062.52 200.749L1053.48 200.749C1043.58 200.749 1035.44 192.815 1035.02 182.753C1034.76 176.715 1037.38 170.92 1042.04 167.179Z" fill="black"/>
<path d="M898.04 167.179L907.278 159.77C910.892 156.872 913.001 152.448 913.001 147.765C913.001 147.204 913.448 146.749 914 146.749C914.552 146.749 914.999 147.204 914.999 147.765C914.999 152.448 917.108 156.872 920.722 159.77L929.96 167.179C934.625 170.92 937.238 176.715 936.983 182.753C936.558 192.815 928.419 200.749 918.523 200.749L909.477 200.749C899.581 200.749 891.442 192.815 891.017 182.753C890.762 176.715 893.375 170.92 898.04 167.179Z" fill="black"/>
<path d="M1758.01 409.536L1767.25 402.128C1770.86 399.229 1772.97 394.805 1772.97 390.123C1772.97 389.561 1773.42 389.106 1773.97 389.106C1774.52 389.106 1774.97 389.561 1774.97 390.123C1774.97 394.805 1777.08 399.229 1780.69 402.128L1789.93 409.536C1794.6 413.277 1797.21 419.072 1796.96 425.111C1796.53 435.172 1788.39 443.106 1778.5 443.106L1769.45 443.106C1759.55 443.106 1751.41 435.172 1750.99 425.111C1750.73 419.072 1753.35 413.277 1758.01 409.536Z" fill="black"/>
<path d="M1639.04 321.536L1648.28 314.128C1651.89 311.229 1654 306.805 1654 302.123C1654 301.561 1654.45 301.106 1655 301.106C1655.55 301.106 1656 301.561 1656 302.123C1656 306.805 1658.11 311.229 1661.72 314.128L1670.96 321.536C1675.62 325.277 1678.24 331.072 1677.98 337.111C1677.56 347.172 1669.42 355.106 1659.52 355.106L1650.48 355.106C1640.58 355.106 1632.44 347.172 1632.02 337.111C1631.76 331.072 1634.38 325.277 1639.04 321.536Z" fill="black"/>
<path d="M737.96 36.6766L728.722 44.0854C725.108 46.9837 722.999 51.4077 722.999 56.09C722.999 56.6514 722.552 57.1064 722 57.1064C721.448 57.1064 721.001 56.6514 721.001 56.09C721.001 51.4077 718.892 46.9837 715.278 44.0854L706.04 36.6766C701.375 32.9355 698.762 27.1406 699.017 21.1022C699.442 11.0409 707.581 3.10644 717.477 3.10644L726.523 3.10644C736.419 3.10644 744.558 11.0409 744.983 21.1022C745.238 27.1406 742.625 32.9355 737.96 36.6766Z" fill="black"/>
<path d="M940.96 397.536L931.722 390.128C928.108 387.229 925.999 382.805 925.999 378.123C925.999 377.561 925.552 377.106 925 377.106C924.448 377.106 924.001 377.561 924.001 378.123C924.001 382.805 921.892 387.229 918.278 390.128L909.04 397.536C904.375 401.277 901.762 407.072 902.017 413.111C902.442 423.172 910.581 431.106 920.477 431.106L929.523 431.106C939.419 431.106 947.558 423.172 947.983 413.111C948.238 407.072 945.625 401.277 940.96 397.536Z" fill="black"/>
<path d="M1035.77 280.677L1045.01 288.085C1048.63 290.984 1050.74 295.408 1050.74 300.09C1050.74 300.651 1051.18 301.106 1051.73 301.106C1052.29 301.106 1052.73 300.651 1052.73 300.09C1052.73 295.408 1054.84 290.984 1058.46 288.085L1067.69 280.677C1072.36 276.935 1074.97 271.141 1074.72 265.102C1074.29 255.041 1066.15 247.106 1056.26 247.106L1047.21 247.106C1037.32 247.106 1029.18 255.041 1028.75 265.102C1028.5 271.141 1031.11 276.935 1035.77 280.677Z" fill="black"/>
<path d="M1361 306.106L1315 305.765V271.106C1315 256.747 1326.64 245.106 1341 245.106H1454V287.106L1380 287.106C1369.51 287.106 1361 295.613 1361 306.106V306.106Z" fill="black"/>
<path d="M1361 376.106L1315 376.448V411.106C1315 425.466 1326.64 437.106 1341 437.106H1457.5V395.106L1380 395.106C1369.51 395.106 1361 386.6 1361 376.106V376.106Z" fill="black"/>
<path d="M745 140.106H699V175.106C699 189.466 710.641 201.106 725 201.106L781 201.106V159.106H764C753.507 159.106 745 150.6 745 140.106V140.106Z" fill="black"/>
<path d="M1550 306.106L1504 305.765V271.106C1504 256.747 1515.64 245.106 1530 245.106H1562V287.106V287.106C1555.37 287.106 1550 292.479 1550 299.106V306.106Z" fill="black"/>
<path d="M1632 334.106H1678V271.107C1678 256.747 1666.36 245.107 1652 245.107H1620V287.107V287.107C1626.63 287.107 1632 292.479 1632 299.107V334.106Z" fill="black"/>
<path d="M1632 336.106H1678V368.606C1678 382.966 1666.36 394.606 1652 394.606L1612 394.606V352.606H1615.5C1624.61 352.606 1632 345.219 1632 336.106V336.106Z" fill="black"/>
<path d="M948 412.106H902V258.448L948 258.106C948 268.58 956.534 277.074 967 277.106L972 277.106C979.263 277.106 987.06 280.735 991.428 287.488C995.337 293.529 995.665 300.666 993.019 307.282L987.779 320.385C985.921 325.028 986.117 330.22 988.269 334.726C988.61 335.44 988.26 336.318 987.499 336.535C986.756 336.747 986.008 336.214 985.901 335.448C984.607 326.214 976.591 319.106 967 319.106C956.507 319.106 948 327.613 948 338.106V412.106Z" fill="black"/>
<path d="M1028.73 266.106H1074.73V419.765L1028.73 420.107C1028.73 409.633 1020.2 401.139 1009.73 401.107L1004.73 401.107C997.471 401.107 989.675 397.477 985.306 390.725C981.398 384.684 981.07 377.547 983.716 370.931L988.956 357.828C990.813 353.185 990.617 347.993 988.465 343.487C988.124 342.773 988.474 341.895 989.235 341.678C989.979 341.466 990.726 341.999 990.834 342.765C992.127 351.999 1000.14 359.107 1009.73 359.107C1020.23 359.107 1028.73 350.6 1028.73 340.107V266.106Z" fill="black"/>
<rect x="1550" y="383.106" width="33" height="46" transform="rotate(90 1550 383.106)" fill="black"/>
<rect x="699" y="140.106" width="118" height="46" transform="rotate(-90 699 140.106)" fill="black"/>
<rect x="1146" y="185.749" width="118" height="46" transform="rotate(-90 1146 185.749)" fill="black"/>
<rect x="1394" y="320.106" width="23" height="42" fill="black"/>
<rect x="1554" y="245.106" width="75" height="42" fill="black"/>
<path d="M1711 287.106C1710.78 287.106 1710.55 287.101 1710.33 287.091C1701.2 286.703 1694 279.271 1694 270.236V261.977C1694 252.941 1701.2 245.51 1710.33 245.122C1710.55 245.112 1710.78 245.106 1711 245.106H1840V245.14C1848.97 245.69 1856 253.051 1856 261.977V270.236C1856 279.162 1848.97 286.522 1840 287.073V287.106H1811C1803.27 287.106 1797 293.374 1797 301.106V423.606H1751V301.106C1751 293.374 1744.73 287.106 1737 287.106H1711Z" fill="black"/>
<path d="M709.359 373.221L709.172 303.221C709.108 279.428 728.378 260.106 752.171 260.106H812C835.748 260.106 855 279.358 855 303.106V373.106C855 396.855 835.748 416.106 812 416.106H752.359C728.655 416.106 709.422 396.925 709.359 373.221Z" stroke="black" stroke-width="42"/>
<path d="M914 182.749L914 87.7489C914 52.4027 942.654 23.749 978 23.749L994 23.749C1029.35 23.749 1058 52.4028 1058 87.749V182.749" stroke="black" stroke-width="46"/>
<path d="M527 137.106V67.1064C527 54.9562 536.85 45.1064 549 45.1064H609C621.15 45.1064 631 54.9562 631 67.1064C631 77.5999 639.507 86.1064 650 86.1064H654C664.493 86.1064 673 77.5999 673 67.1064C673 31.7602 644.346 3.10645 609 3.10645H549C513.654 3.10645 485 31.7602 485 67.1064V137.106C485 172.453 513.654 201.106 549 201.106H609C644.346 201.106 673 172.453 673 137.106C673 126.061 664.046 117.106 653 117.106H651C639.954 117.106 631 126.061 631 137.106C631 149.257 621.15 159.106 609 159.106H549C536.85 159.106 527 149.257 527 137.106Z" fill="black"/>
<path d="M527 373.106V303.106C527 290.956 536.85 281.106 549 281.106H609C621.15 281.106 631 290.956 631 303.106C631 313.6 639.507 322.106 650 322.106H654C664.493 322.106 673 313.6 673 303.106C673 267.76 644.346 239.106 609 239.106H549C513.654 239.106 485 267.76 485 303.106V373.106C485 408.453 513.654 437.106 549 437.106H609C644.346 437.106 673 408.453 673 373.106C673 362.061 664.046 353.106 653 353.106H651C639.954 353.106 631 362.061 631 373.106C631 385.257 621.15 395.106 609 395.106H549C536.85 395.106 527 385.257 527 373.106Z" fill="black"/>
<path d="M1139 373.106V303.106C1139 290.956 1148.85 281.106 1161 281.106H1221C1233.15 281.106 1243 290.956 1243 303.106C1243 313.6 1251.51 322.106 1262 322.106H1266C1276.49 322.106 1285 313.6 1285 303.106C1285 267.76 1256.35 239.106 1221 239.106H1161C1125.65 239.106 1097 267.76 1097 303.106V373.106C1097 408.453 1125.65 437.106 1161 437.106H1221C1256.35 437.106 1285 408.453 1285 373.106C1285 362.061 1276.05 353.106 1265 353.106H1263C1251.95 353.106 1243 362.061 1243 373.106C1243 385.257 1233.15 395.106 1221 395.106H1161C1148.85 395.106 1139 385.257 1139 373.106Z" fill="black"/>
<path fill-rule="evenodd" clip-rule="evenodd" d="M1121.97 9.04741C1121.97 9.05338 1121.96 9.05363 1121.95 9.04803C1115.22 3.10323 1105.05 3.34234 1098.74 9.65082L1092.9 15.4911C1086.59 21.7994 1086.35 31.9648 1092.3 38.6988C1092.3 38.7055 1092.3 38.7158 1092.3 38.7222V38.7222C1092.29 38.7289 1092.29 38.7397 1092.3 38.7464L1138.76 85.2075C1143.38 89.8261 1145.97 96.0901 1145.97 102.622V104.249C1145.97 116.952 1156.27 127.249 1168.97 127.249V127.249C1181.68 127.249 1191.97 116.952 1191.97 104.249V102.508C1191.97 95.9462 1194.58 89.6532 1199.22 85.0133L1244.61 39.621C1244.83 39.4057 1245.05 39.184 1245.26 38.956L1245.49 38.7446C1245.49 38.7385 1245.49 38.728 1245.49 38.7215V38.7215C1245.48 38.7155 1245.48 38.7059 1245.49 38.6995C1251.43 31.9656 1251.19 21.7996 1244.88 15.4911L1239.05 9.65082C1232.74 3.3427 1222.57 3.10326 1215.84 9.0475C1215.83 9.05368 1215.82 9.05347 1215.81 9.04693V9.04693C1215.81 9.0401 1215.8 9.04016 1215.79 9.04706L1186.57 38.2658C1176.81 48.029 1160.98 48.0289 1151.21 38.2656L1122.85 9.90033C1122.64 9.68841 1122.43 9.48138 1122.21 9.27923L1122 9.04793C1121.99 9.0412 1121.98 9.04096 1121.97 9.04741V9.04741Z" fill="black"/>
<path d="M347.789 89.3115C305.842 47.3622 263.674 2.39025 204.357 1.4936C187.374 1.23688 173.886 1.10645 170 1.10645C76.1113 1.10645 0 77.218 0 171.106V267.106C0 360.995 76.1113 437.106 170 437.106H266C359.889 437.106 436 360.995 436 267.106C436 263.221 435.87 249.737 435.613 232.758C434.716 173.437 389.74 131.264 347.789 89.3115V89.3115Z" fill="black"/>
</svg>
